<svg width="867" height="711" viewBox="0 0 867 711" fill="none" xmlns="http://www.w3.org/2000/svg">
<g id="No Results">
<g id="Group 2086">
<g id="circle">
<path id="Stroke 1" d="M29.4961 326.285V333.62" stroke="#D2D8DF" stroke-width="2.921" stroke-linecap="round"/>
<g id="Group 8">
<path id="Stroke 2" d="M13.0195 330.258L19.013 336.428" stroke="#D2D8DF" stroke-width="2.921" stroke-linecap="round"/>
<path id="Stroke 4" d="M6 346.676H14.4747" stroke="#D2D8DF" stroke-width="2.921" stroke-linecap="round"/>
<path id="Stroke 6" d="M12.3281 363.392L18.3216 357.223" stroke="#D2D8DF" stroke-width="2.921" stroke-linecap="round"/>
</g>
<path id="Stroke 9" d="M29.4961 365.401V358.066" stroke="#D2D8DF" stroke-width="2.921" stroke-linecap="round"/>
<path id="Stroke 10" d="M41.7101 360.507L36.8203 355.617" stroke="#D2D8DF" stroke-width="2.921" stroke-linecap="round"/>
<path id="Stroke 11" d="M51.4909 348.281H44.1562" stroke="#D2D8DF" stroke-width="2.921" stroke-linecap="round"/>
<path id="Stroke 12" d="M46.6085 331.172L41.7188 336.062" stroke="#D2D8DF" stroke-width="2.921" stroke-linecap="round"/>
<path id="Stroke 13" d="M423.117 6V10.8898" stroke="#D2D8DF" stroke-width="2.921" stroke-linecap="round"/>
<path id="Stroke 15" d="M408.445 20.6719H413.335" stroke="#D2D8DF" stroke-width="2.921" stroke-linecap="round"/>
<path id="Stroke 16" d="M423.105 35.3351V30.4453" stroke="#D2D8DF" stroke-width="2.921" stroke-linecap="round"/>
<path id="Stroke 17" d="M435.343 20.6719H430.453" stroke="#D2D8DF" stroke-width="2.921" stroke-linecap="round"/>
<path id="Stroke 18" d="M139.512 211.371V218.706" stroke="#D2D8DF" stroke-width="2.921" stroke-linecap="round"/>
<path id="Stroke 19" d="M117.504 233.379H124.839" stroke="#D2D8DF" stroke-width="2.921" stroke-linecap="round"/>
<path id="Stroke 20" d="M139.512 252.936V245.602" stroke="#D2D8DF" stroke-width="2.921" stroke-linecap="round"/>
<path id="Stroke 21" d="M159.069 233.379H151.734" stroke="#D2D8DF" stroke-width="2.921" stroke-linecap="round"/>
<g id="Group 42">
<path id="Stroke 22" d="M665.777 477.961C671.62 477.961 676.358 482.701 676.358 488.545C676.358 494.392 671.62 499.129 665.777 499.129C659.934 499.129 655.195 494.392 655.195 488.545" stroke="#D2D8DF" stroke-width="2.921" stroke-linecap="round"/>
<path id="Fill 26" fill-rule="evenodd" clip-rule="evenodd" d="M714.211 381.942C720.494 379.982 730.125 372.298 732.354 364.031C734.375 371.339 742.85 379.982 750.497 380.636C741.889 383.684 733.659 392.738 732.354 399.851C731.465 392.601 720.083 382.999 714.211 381.942Z" fill="#EBECEE"/>
<path id="Fill 28" fill-rule="evenodd" clip-rule="evenodd" d="M69.2695 474.704C72.412 473.724 77.2253 469.884 78.3399 465.75C79.3508 469.402 83.5871 473.724 87.4103 474.053C83.1076 475.574 78.9937 480.102 78.3399 483.659C77.8958 480.034 72.2044 475.232 69.2695 474.704Z" fill="#EBECEE"/>
<path id="Fill 30" fill-rule="evenodd" clip-rule="evenodd" d="M127.586 134.594C127.586 139.128 123.912 142.801 119.381 142.801C114.848 142.801 111.176 139.128 111.176 134.594C111.176 130.062 114.848 126.387 119.381 126.387C123.912 126.387 127.586 130.062 127.586 134.594Z" fill="#D1D8DF"/>
<path id="Fill 32" fill-rule="evenodd" clip-rule="evenodd" d="M675.476 156.639C675.476 164.215 669.334 170.356 661.762 170.356C654.187 170.356 648.047 164.215 648.047 156.639C648.047 149.063 654.187 142.922 661.762 142.922C669.334 142.922 675.476 149.063 675.476 156.639Z" fill="#EBECEE"/>
<path id="Fill 34" fill-rule="evenodd" clip-rule="evenodd" d="M865.434 119.467C865.434 125.477 860.565 130.348 854.558 130.348C848.549 130.348 843.68 125.477 843.68 119.467C843.68 113.457 848.549 108.586 854.558 108.586C860.565 108.586 865.434 113.457 865.434 119.467Z" fill="#EBECEE"/>
<path id="Stroke 36" fill-rule="evenodd" clip-rule="evenodd" d="M280.924 627.66C280.924 631.449 277.855 634.52 274.067 634.52C270.281 634.52 267.211 631.449 267.211 627.66C267.211 623.871 270.281 620.801 274.067 620.801C277.855 620.801 280.924 623.871 280.924 627.66Z" stroke="#D2D8DF" stroke-width="2.921" stroke-linecap="round"/>
<path id="Stroke 38" fill-rule="evenodd" clip-rule="evenodd" d="M276.847 81.8711C276.847 86.4054 273.173 90.0781 268.642 90.0781C264.111 90.0781 260.438 86.4054 260.438 81.8711C260.438 77.3388 264.111 73.6641 268.642 73.6641C273.173 73.6641 276.847 77.3388 276.847 81.8711Z" stroke="#D2D8DF" stroke-width="2.921" stroke-linecap="round"/>
<path id="Stroke 40" fill-rule="evenodd" clip-rule="evenodd" d="M486.143 703.622C480.9 705.617 475.032 702.983 473.038 697.741C471.043 692.496 473.675 686.625 478.92 684.632C484.161 682.637 490.029 685.269 492.023 690.513C494.02 695.758 491.386 701.627 486.143 703.622Z" stroke="#D2D8DF" stroke-width="2.921" stroke-linecap="round"/>
</g>
</g>
<g id="search">
<g id="documents">
<path id="Fill 1" fill-rule="evenodd" clip-rule="evenodd" d="M483.018 509.648H282.526C268.414 509.648 256.863 498.063 256.863 483.904L256.863 197.992C256.863 183.833 268.414 172.254 282.526 172.254H483.018C497.135 172.254 508.687 183.833 508.687 197.992L508.687 483.904C508.687 498.063 497.135 509.648 483.018 509.648Z" fill="#797979"/>
<path id="Fill 3" fill-rule="evenodd" clip-rule="evenodd" d="M465.909 521.871H265.417C251.305 521.871 239.754 510.286 239.754 496.127L239.754 210.215C239.754 196.056 251.305 184.477 265.417 184.477H465.909C480.026 184.477 491.577 196.056 491.577 210.215L491.577 496.127C491.577 510.286 480.026 521.871 465.909 521.871Z" fill="#E8EBF2"/>
<path id="Fill 5" fill-rule="evenodd" clip-rule="evenodd" d="M449.255 531.525H248.349C234.208 531.525 222.633 519.987 222.633 505.887L222.633 221.159C222.633 207.059 234.208 195.527 248.349 195.527H449.255C463.402 195.527 474.977 207.059 474.977 221.159L474.977 505.887C474.977 519.987 463.402 531.525 449.255 531.525Z" fill="#D8DBEA"/>
<path id="Fill 8" fill-rule="evenodd" clip-rule="evenodd" d="M449.255 531.525H248.349C234.208 531.525 222.633 519.987 222.633 505.887L222.633 221.159C222.633 207.059 234.208 195.527 248.349 195.527H449.255C463.402 195.527 474.977 207.059 474.977 221.159L474.977 505.887C474.977 519.987 463.402 531.525 449.255 531.525Z" fill="#F1F2F7"/>
<path id="Fill 11" fill-rule="evenodd" clip-rule="evenodd" d="M420.3 282.279H271.906C267.668 282.279 264.199 278.979 264.199 274.947C264.199 270.91 267.668 267.609 271.906 267.609H420.3C424.538 267.609 428.007 270.91 428.007 274.947C428.007 278.979 424.538 282.279 420.3 282.279Z" fill="#797979"/>
<path id="Fill 13" fill-rule="evenodd" clip-rule="evenodd" d="M420.3 326.283H271.906C267.668 326.283 264.199 322.982 264.199 318.951C264.199 314.913 267.668 311.613 271.906 311.613H420.3C424.538 311.613 428.007 314.913 428.007 318.951C428.007 322.982 424.538 326.283 420.3 326.283Z" fill="#797979"/>
<path id="Fill 15" fill-rule="evenodd" clip-rule="evenodd" d="M420.3 370.287H271.906C267.668 370.287 264.199 366.986 264.199 362.955C264.199 358.923 267.668 355.617 271.906 355.617H420.3C424.538 355.617 428.007 358.923 428.007 362.955C428.007 366.986 424.538 370.287 420.3 370.287Z" fill="#797979"/>
<path id="Fill 17" fill-rule="evenodd" clip-rule="evenodd" d="M420.3 414.302H271.906C267.668 414.302 264.199 411.002 264.199 406.97C264.199 402.933 267.668 399.633 271.906 399.633H420.3C424.538 399.633 428.007 402.933 428.007 406.97C428.007 411.002 424.538 414.302 420.3 414.302Z" fill="#797979"/>
<path id="Fill 19" fill-rule="evenodd" clip-rule="evenodd" d="M349.365 458.306H271.939C267.683 458.306 264.199 455.006 264.199 450.974C264.199 446.937 267.683 443.637 271.939 443.637H349.365C353.621 443.637 357.105 446.937 357.105 450.974C357.105 455.006 353.621 458.306 349.365 458.306Z" fill="#797979"/>
</g>
<g id="search_2">
<path id="Fill 21" fill-rule="evenodd" clip-rule="evenodd" d="M505.637 401.425C475.964 431.092 430.027 434.439 396.677 411.534C392.415 408.554 388.358 405.207 384.575 401.425C382.628 399.484 380.792 397.48 379.062 395.372C375.603 391.16 372.573 386.668 370.09 382.028C365.716 374.189 362.742 365.872 361.118 357.274C355.879 330.313 363.713 301.292 384.575 280.439C405.487 259.524 434.513 251.742 461.479 256.93C470.072 258.604 478.397 261.577 486.237 265.901C490.885 268.439 495.315 271.469 499.533 274.927C501.636 276.651 503.64 278.492 505.581 280.439C509.37 284.222 512.767 288.271 515.692 292.539C538.608 325.877 535.254 371.813 505.637 401.425Z" fill="white" fill-opacity="0.1"/>
<path id="Fill 23" fill-rule="evenodd" clip-rule="evenodd" d="M497.338 395.587C466.467 426.463 416.439 426.458 385.563 395.587C354.726 364.751 354.726 314.717 385.603 283.846C416.439 253.01 466.467 253.01 497.303 283.846C528.174 314.717 528.174 364.751 497.338 395.587ZM513.178 267.984C473.552 228.359 409.341 228.359 369.716 267.984C330.097 307.604 330.062 371.855 369.682 411.48C405.745 447.533 462.27 450.784 502.028 421.183C505.911 418.288 509.65 415.042 513.218 411.48C516.779 407.913 520.025 404.174 522.914 400.29C552.515 360.527 549.235 304.042 513.178 267.984Z" fill="#797979"/>
<path id="Fill 25" fill-rule="evenodd" clip-rule="evenodd" d="M669.121 560.852L667.458 562.516C656.452 573.527 638.429 573.527 627.418 562.516L525.797 460.895L567.5 419.191L669.121 520.813C680.133 531.824 680.133 549.841 669.121 560.852Z" fill="url(#paint0_linear_309_1360)"/>
<path id="Fill 27" fill-rule="evenodd" clip-rule="evenodd" d="M525.102 397.184L555.132 427.213L533.813 448.526L503.789 418.497C507.752 415.542 511.562 412.231 515.208 408.596C518.842 404.962 522.154 401.146 525.102 397.184Z" fill="#797979"/>
<path id="Fill 29" fill-rule="evenodd" clip-rule="evenodd" d="M667.601 519.563L626.163 560.995L618.703 553.53L660.135 512.098L667.601 519.563Z" fill="#CF9033"/>
<path id="Fill 31" fill-rule="evenodd" clip-rule="evenodd" d="M569.808 420.617L527.235 463.191L520.91 456.866L563.483 414.293L569.808 420.617Z" fill="url(#paint1_linear_309_1360)"/>
<path id="Fill 33" fill-rule="evenodd" clip-rule="evenodd" d="M476.894 273.225L372.489 377.625C368.557 370.578 365.884 363.101 364.43 355.371L454.64 265.16C462.364 266.67 469.847 269.338 476.894 273.225Z" fill="#979797" fill-opacity="0.5"/>
<path id="Fill 35" fill-rule="evenodd" clip-rule="evenodd" d="M511.13 298.035L398.256 404.514C394.214 401.853 390.367 398.858 386.779 395.473C384.932 393.731 383.185 391.944 381.551 390.057L495.799 282.27C497.799 283.817 499.7 285.465 501.541 287.207C505.128 290.592 508.356 294.216 511.13 298.035Z" fill="#979797" fill-opacity="0.5"/>
</g>
</g>
</g>
</g>
<defs>
<linearGradient id="paint0_linear_309_1360" x1="601.588" y1="343.4" x2="450.005" y2="494.983" gradientUnits="userSpaceOnUse">
<stop stop-color="#CF9033"/>
<stop offset="1" stop-color="#F5B301"/>
</linearGradient>
<linearGradient id="paint1_linear_309_1360" x1="545.359" y1="389.844" x2="496.461" y2="438.742" gradientUnits="userSpaceOnUse">
<stop stop-color="#F5B301"/>
<stop offset="1" stop-color="#F5B301"/>
</linearGradient>
</defs>
</svg>
