<svg width="44" height="26" viewBox="0 0 44 26" fill="none" xmlns="http://www.w3.org/2000/svg">
<rect x="8.92676" y="2.66602" width="27.6301" height="15.7279" rx="0.106269" fill="#EB5F31"/>
<rect x="39.7441" y="0.349609" width="2.97555" height="2.97555" rx="0.106269" transform="rotate(45 39.7441 0.349609)" fill="#F5C354"/>
<path d="M23.7003 23.0093C23.3331 23.0093 22.9907 22.9504 22.6734 22.8325C22.3605 22.7101 22.0885 22.5378 21.8572 22.3156C21.626 22.0934 21.4446 21.8327 21.3131 21.5335C21.1862 21.2342 21.1227 20.9055 21.1227 20.5473C21.1227 20.1891 21.1862 19.8604 21.3131 19.5611C21.4446 19.2619 21.626 19.0011 21.8572 18.779C22.093 18.5568 22.3673 18.3868 22.6802 18.2689C22.993 18.1465 23.3353 18.0852 23.7071 18.0852C24.1198 18.0852 24.4916 18.1578 24.8226 18.3029C25.1581 18.4434 25.4392 18.652 25.6659 18.9286L24.9586 19.5815C24.7953 19.3956 24.614 19.2573 24.4145 19.1666C24.215 19.0714 23.9973 19.0238 23.7616 19.0238C23.5394 19.0238 23.3353 19.0601 23.1494 19.1326C22.9635 19.2052 22.8026 19.3095 22.6666 19.4455C22.5305 19.5815 22.424 19.7425 22.3469 19.9284C22.2744 20.1143 22.2381 20.3206 22.2381 20.5473C22.2381 20.774 22.2744 20.9803 22.3469 21.1662C22.424 21.3521 22.5305 21.5131 22.6666 21.6491C22.8026 21.7851 22.9635 21.8894 23.1494 21.962C23.3353 22.0345 23.5394 22.0708 23.7616 22.0708C23.9973 22.0708 24.215 22.0254 24.4145 21.9348C24.614 21.8395 24.7953 21.6967 24.9586 21.5063L25.6659 22.1592C25.4392 22.4358 25.1581 22.6466 24.8226 22.7917C24.4916 22.9368 24.1175 23.0093 23.7003 23.0093ZM28.5479 23.0093C28.1716 23.0093 27.8225 22.9481 27.5005 22.8257C27.1832 22.7033 26.9066 22.531 26.6708 22.3088C26.4395 22.0866 26.2582 21.8259 26.1267 21.5267C25.9997 21.2274 25.9363 20.901 25.9363 20.5473C25.9363 20.1936 25.9997 19.8672 26.1267 19.5679C26.2582 19.2687 26.4418 19.0079 26.6776 18.7858C26.9134 18.5636 27.19 18.3913 27.5073 18.2689C27.8247 18.1465 28.1693 18.0852 28.5411 18.0852C28.9175 18.0852 29.2621 18.1465 29.5749 18.2689C29.8923 18.3913 30.1666 18.5636 30.3979 18.7858C30.6337 19.0079 30.8173 19.2687 30.9488 19.5679C31.0803 19.8626 31.146 20.1891 31.146 20.5473C31.146 20.901 31.0803 21.2297 30.9488 21.5335C30.8173 21.8327 30.6337 22.0934 30.3979 22.3156C30.1666 22.5333 29.8923 22.7033 29.5749 22.8257C29.2621 22.9481 28.9197 23.0093 28.5479 23.0093ZM28.5411 22.0708C28.7542 22.0708 28.9492 22.0345 29.126 21.962C29.3074 21.8894 29.4661 21.7851 29.6021 21.6491C29.7382 21.5131 29.8424 21.3521 29.915 21.1662C29.9921 20.9803 30.0306 20.774 30.0306 20.5473C30.0306 20.3206 29.9921 20.1143 29.915 19.9284C29.8424 19.7425 29.7382 19.5815 29.6021 19.4455C29.4706 19.3095 29.3142 19.2052 29.1328 19.1326C28.9515 19.0601 28.7542 19.0238 28.5411 19.0238C28.328 19.0238 28.1308 19.0601 27.9494 19.1326C27.7726 19.2052 27.6162 19.3095 27.4801 19.4455C27.3441 19.5815 27.2376 19.7425 27.1605 19.9284C27.0879 20.1143 27.0517 20.3206 27.0517 20.5473C27.0517 20.7695 27.0879 20.9758 27.1605 21.1662C27.2376 21.3521 27.3418 21.5131 27.4733 21.6491C27.6094 21.7851 27.7681 21.8894 27.9494 21.962C28.1308 22.0345 28.328 22.0708 28.5411 22.0708ZM31.8992 22.9277V18.1669H34.062C34.5789 18.1669 35.0346 18.2666 35.4291 18.4661C35.8236 18.6611 36.1319 18.9354 36.3541 19.2891C36.5762 19.6427 36.6873 20.0621 36.6873 20.5473C36.6873 21.0279 36.5762 21.4473 36.3541 21.8055C36.1319 22.1592 35.8236 22.4358 35.4291 22.6353C35.0346 22.8302 34.5789 22.9277 34.062 22.9277H31.8992ZM33.0011 22.0232H34.0076C34.325 22.0232 34.5993 21.9642 34.8306 21.8463C35.0664 21.7239 35.2477 21.5516 35.3747 21.3294C35.5062 21.1073 35.5719 20.8466 35.5719 20.5473C35.5719 20.2435 35.5062 19.9828 35.3747 19.7652C35.2477 19.543 35.0664 19.3729 34.8306 19.2551C34.5993 19.1326 34.325 19.0714 34.0076 19.0714H33.0011V22.0232Z" fill="#F26949"/>
<path fill-rule="evenodd" clip-rule="evenodd" d="M11.5096 7.46588C11.4897 7.48581 11.4785 7.51284 11.4785 7.54102V9.70061V11.397V13.5565C11.4785 13.5847 11.4897 13.6118 11.5096 13.6317L14.3487 16.4707C14.3686 16.4907 14.3956 16.5019 14.4238 16.5019H22.1041H23.3807H31.0609C31.0891 16.5019 31.1161 16.4907 31.1361 16.4707L33.9751 13.6317C33.9951 13.6118 34.0063 13.5847 34.0063 13.5565V11.397V9.70061V7.54102C34.0063 7.51284 33.9951 7.48581 33.9751 7.46588L31.1361 4.62683C31.1161 4.6069 31.0891 4.5957 31.0609 4.5957H23.3807H22.1041H14.4238C14.3956 4.5957 14.3686 4.6069 14.3487 4.62683L11.5096 7.46588Z" fill="#EE825B"/>
<circle cx="22.5274" cy="10.5509" r="4.67586" fill="#EB5D2D"/>
<path d="M8.6631 16.2066C5.9493 12.9609 2.23607 15.9547 0.104954 16.0535C0.0463258 16.0562 0 16.1035 0 16.1622V24.2387C0 24.2974 0.0475791 24.345 0.10627 24.345H14.8665C14.874 24.345 14.8813 24.3443 14.8886 24.3427C17.7702 23.7186 21.3778 20.3331 22.6289 18.5786C22.6782 18.5095 22.628 18.4153 22.5431 18.4153H14.3071C14.2094 18.4153 14.1622 18.2946 14.2342 18.2284C16.2397 16.3852 20.3085 11.8199 17.6407 10.1049C15.7279 8.8752 10.6269 16.2685 10.2019 16.056C9.8835 15.8968 9.16771 16.0978 8.78701 16.2403C8.74344 16.2566 8.69294 16.2423 8.6631 16.2066Z" fill="#F5BB89"/>
</svg>
